Coordinates
version=1
nRows=16
nColumns=28
inDegrees=yes

Units are S.I. units (second, meters, Newtons, ...)
Angles are in degrees.

endheader
time	pelvis_tilt	pelvis_list	pelvis_rotation	pelvis_tx	pelvis_ty	pelvis_tz	hip_flexion_r	hip_adduction_r	hip_rotation_r	knee_angle_r	ankle_angle_r	subtalar_angle_r	mtp_angle_r	hip_flexion_l	hip_adduction_l	hip_rotation_l	knee_angle_l	socket_flexion	socket_adduction	socket_rotation	socket_tx	socket_ty	socket_tz	foot_flex	lumbar_extension	lumbar_bending	lumbar_rotation
      0.93333333	     12.72983912	     -4.64876489	    -12.40601428	      0.41941418	      1.04002022	      0.32958987	     -6.00596046	      2.48733207	     -7.47118160	    -21.87962974	      0.66137273	      6.92529925	     44.77225466	     -3.65910718	     -2.97157080	     -7.29429768	    -59.89934456	     -7.40498476	      0.00000000	      0.00000000	      0.00000000	      0.00000000	      0.00000000	     -0.60830580	    -22.62801815	      3.30146029	     17.94486774
      0.93750000	     12.73523310	     -4.57729034	    -12.60467698	      0.42384489	      1.04081310	      0.33012572	     -6.42370638	      2.32590428	     -7.41647793	    -21.56777809	      0.67424363	      7.07237411	     44.85455101	     -3.12403007	     -2.94046452	     -7.13833191	    -59.56942499	     -7.49688562	      0.00000000	      0.00000000	      0.00000000	      0.00000000	      0.00000000	     -0.65070334	    -22.63430934	      3.12840674	     18.02268166
      0.94166667	     12.73772015	     -4.48067328	    -12.80555177	      0.42825452	      1.04165778	      0.33068897	     -6.83490471	      2.14213242	     -7.33914139	    -21.24062130	      0.58245788	      7.28050856	     44.94221672	     -2.60969068	     -2.88172869	     -6.97077866	    -59.10503649	     -7.50195142	      0.00000000	      0.00000000	      0.00000000	      0.00000000	      0.00000000	     -0.66419126	    -22.63809840	      2.92919148	     18.14859236
      0.94583333	     12.74387404	     -4.38818579	    -13.01774397	      0.43261619	      1.04246167	      0.33123169	     -7.23185804	      1.95059301	     -7.27658605	    -20.94020715	      0.45612193	      7.50671640	     45.03224808	     -2.10954736	     -2.82261902	     -6.80493723	    -58.60654923	     -7.50702479	      0.00000000	      0.00000000	      0.00000000	      0.00000000	      0.00000000	     -0.67452683	    -22.65539715	      2.72470495	     18.28924692
      0.95000000	     12.76756431	     -4.42284795	    -13.25991742	      0.43668621	      1.04307580	      0.33170812	     -7.52600541	      1.84970175	     -7.31261784	    -20.92396515	      0.44083630	      7.54117032	     45.04631741	     -1.60487130	     -2.90882201	     -6.69991859	    -58.28233118	     -7.64878895	      0.00000000	      0.00000000	      0.00000000	      0.00000000	      0.00000000	     -0.64977805	    -22.77870691	      2.67417598	     18.31347032
      0.95416667	     12.73194174	     -4.26147571	    -13.39760078	      0.44125557	      1.04391589	      0.33224849	     -7.98910452	      1.64101139	     -7.15720678	    -20.38080812	      0.25546549	      7.88271365	     45.15462910	     -1.10951747	     -2.76899020	     -6.38637196	    -57.56306236	     -7.54335105	      0.00000000	      0.00000000	      0.00000000	      0.00000000	      0.00000000	     -0.70015166	    -22.68174978	      2.40293397	     18.52823317
      0.95833333	     12.74505658	     -4.30016903	    -13.63627743	      0.44527272	      1.04445653	      0.33271305	     -8.26961133	      1.53867112	     -7.19439983	    -20.35425313	      0.22614131	      7.93188698	     45.17296988	     -0.60894442	     -2.86467863	     -6.25911935	    -57.18697188	     -7.68937182	      0.00000000	      0.00000000	      0.00000000	      0.00000000	      0.00000000	     -0.67417552	    -22.81244856	      2.34146728	     18.55856651
      0.96250000	     12.84700922	     -4.04579309	    -13.83851224	      0.44981827	      1.04542283	      0.33333137	     -8.76829430	      1.10430048	     -7.32418108	    -19.94719005	     -0.34720456	      8.94937230	     45.72681008	     -0.33437023	     -2.57813499	     -6.00799738	    -56.20141748	     -7.46597500	      0.00000000	      0.00000000	      0.00000000	      0.00000000	      0.00000000	     -0.67229325	    -22.82267822	      1.88450502	     18.96691486
      0.96666667	     12.85552858	     -4.10437892	    -14.05816252	      0.45377413	      1.04584025	      0.33378466	     -9.03385608	      1.02942082	     -7.35455433	    -19.94495672	     -0.32975479	      8.96983793	     45.74253079	      0.16626996	     -2.70464131	     -5.85791090	    -55.82742281	     -7.65352683	      0.00000000	      0.00000000	      0.00000000	      0.00000000	      0.00000000	     -0.65246272	    -22.95449742	      1.84235617	     18.97356358
      0.97083333	     12.75517061	     -4.06268625	    -14.08981469	      0.45810208	      1.04647963	      0.33409441	     -9.41171243	      0.98726270	     -7.21270408	    -19.48297547	     -0.31401203	      9.19871999	     45.84839069	      0.70689056	     -2.69794690	     -5.35278660	    -55.03223059	     -7.54420172	      0.00000000	      0.00000000	      0.00000000	      0.00000000	      0.00000000	     -0.73681149	    -22.85410476	      1.78324323	     19.07521435
      0.97500000	     12.68561230	     -4.01702970	    -14.19319480	      0.46244891	      1.04698583	      0.33454796	     -9.75921002	      0.88333920	     -7.21134802	    -19.12887924	     -0.45562239	      9.42193286	     45.94529513	      1.21523370	     -2.70735605	     -5.00503478	    -54.34068141	     -7.54252665	      0.00000000	      0.00000000	      0.00000000	      0.00000000	      0.00000000	     -0.70769328	    -22.79095634	      1.66257356	     19.14537366
      0.97916667	     12.63849656	     -4.03975357	    -14.33171991	      0.46651872	      1.04740628	      0.33489315	    -10.04043400	      0.81741449	     -7.19699810	    -18.96795819	     -0.55445785	      9.57754436	     46.01299823	      1.70554065	     -2.77419814	     -4.65007500	    -53.68157617	     -7.57060220	      0.00000000	      0.00000000	      0.00000000	      0.00000000	      0.00000000	     -0.74286599	    -22.81762466	      1.62775356	     19.19922021
      0.98333333	     12.55989770	     -4.01043198	    -14.41069121	      0.47077474	      1.04780926	      0.33531674	    -10.37038381	      0.73843553	     -7.21199165	    -18.61808993	     -0.71040922	      9.80907079	     46.11148879	      2.20666163	     -2.80840811	     -4.26595456	    -52.95152652	     -7.57084257	      0.00000000	      0.00000000	      0.00000000	      0.00000000	      0.00000000	     -0.72244767	    -22.76161030	      1.51640139	     19.26647805
      0.98750000	     12.55770408	     -4.07815528	    -14.62277658	      0.47468478	      1.04797817	      0.33582479	    -10.61682465	      0.66985572	     -7.24874698	    -18.63655801	     -0.72070788	      9.83112005	     46.12196645	      2.68327850	     -2.96365700	     -4.09362555	    -52.52454160	     -7.79098695	      0.00000000	      0.00000000	      0.00000000	      0.00000000	      0.00000000	     -0.70023623	    -22.89030009	      1.45992782	     19.27081945
      0.99166667	     12.40075925	     -4.02679956	    -14.58223867	      0.47916934	      1.04844334	      0.33612184	    -10.98731551	      0.64482756	     -7.22165687	    -18.05998904	     -0.97420599	     10.18514366	     46.25902830	      3.18737615	     -2.94687075	     -3.43599337	    -51.48571744	     -7.59499741	      0.00000000	      0.00000000	      0.00000000	      0.00000000	      0.00000000	     -0.71373235	    -22.67762066	      1.40250983	     19.37453072
      0.99583333	     12.33693305	     -4.09971134	    -14.69356924	      0.48308400	      1.04868195	      0.33646493	    -11.22483388	      0.64345943	     -7.21674427	    -17.96602593	     -1.05383543	     10.32294196	     46.32645866	      3.65418203	     -3.07983201	     -3.02000628	    -50.76270294	     -7.63221144	      0.00000000	      0.00000000	      0.00000000	      0.00000000	      0.00000000	     -0.78217078	    -22.72740618	      1.42286501	     19.40881075
